<?xml version="1.0" standalone="no"?>
<!DOCTYPE svg PUBLIC "-//W3C//DTD SVG 20010904//EN"
 "http://www.w3.org/TR/2001/REC-SVG-20010904/DTD/svg10.dtd">
<svg version="1.0" xmlns="http://www.w3.org/2000/svg"
 width="1280.000000pt" height="853.000000pt" viewBox="0 0 1280.000000 853.000000"
 preserveAspectRatio="xMidYMid meet">

<g transform="translate(0.000000,853.000000) scale(0.100000,-0.100000)"
fill="#000000" stroke="none">
<path d="M0 4265 l0 -4265 6400 0 6400 0 0 4265 0 4265 -6400 0 -6400 0 0
-4265z m6262 3603 c100 -43 165 -150 155 -256 -4 -51 -38 -142 -52 -142 -3 0
3 17 14 38 48 94 33 203 -40 285 -22 26 -46 47 -52 47 -7 -1 0 -11 15 -23 29
-24 78 -86 78 -99 0 -4 -4 -8 -10 -8 -5 0 -10 7 -10 15 0 9 -6 12 -17 9 -15
-5 -15 -4 -3 5 12 8 10 15 -15 42 -17 17 -43 40 -60 51 -28 18 -28 19 -5 14
15 -4 9 2 -15 14 -54 26 -145 26 -204 0 -24 -11 -42 -23 -39 -25 3 -3 25 4 49
15 29 13 63 19 99 18 30 0 43 -3 28 -5 -20 -3 -25 -8 -21 -20 4 -11 2 -14 -8
-11 -8 3 -13 11 -11 17 4 20 -43 12 -99 -16 -33 -17 -67 -45 -86 -71 -18 -24
-33 -38 -34 -30 -2 38 -28 -55 -29 -103 0 -62 18 -128 30 -109 5 8 9 7 13 -5
4 -9 3 -13 -3 -10 -6 3 -10 1 -10 -5 0 -27 -21 6 -36 56 -21 72 -12 137 29
205 74 123 213 165 349 107z m-496 1 c58 -28 89 -78 88 -144 -1 -28 -8 -64
-17 -80 -16 -31 -158 -175 -173 -175 -4 0 29 37 73 83 86 89 109 133 100 197
-10 75 -67 120 -163 128 -66 5 -139 -18 -183 -59 l-34 -31 44 -29 c24 -16 46
-24 47 -19 7 18 60 40 99 40 52 0 83 -23 83 -61 0 -35 -53 -95 -185 -212 -68
-61 -62 -53 43 54 104 108 122 130 122 158 0 25 -5 34 -27 42 -37 14 -81 4
-113 -25 l-25 -24 -53 35 -53 34 21 29 c11 15 43 40 72 54 68 34 170 36 234 5z
m991 -16 c124 -44 105 -185 -41 -303 l-56 -45 88 -3 c54 -2 88 1 90 8 2 5 18
10 35 9 l32 -1 -27 -11 c-26 -10 -28 -15 -28 -69 l0 -58 -205 0 -205 0 -6 27
c-4 14 -2 33 3 42 6 9 64 64 129 122 130 115 147 144 101 174 -30 19 -68 12
-112 -21 l-30 -22 -25 20 c-14 11 -36 29 -49 39 -29 23 -20 37 46 76 71 42
172 48 260 16z m523 -48 l0 -55 -100 0 -100 0 0 -25 c0 -23 4 -25 48 -25 74
-1 192 -66 192 -107 0 -20 -7 -16 -49 26 -43 43 -90 61 -163 61 l-48 0 0 45 0
45 100 0 100 0 0 35 0 35 -150 0 -150 0 0 -97 c-1 -124 -20 -104 -28 29 l-5
88 177 0 176 0 0 -55z m-1045 -44 c76 -44 100 -150 50 -224 -14 -20 -28 -37
-31 -37 -2 0 7 17 21 37 19 29 25 50 25 90 0 47 -4 58 -36 93 -19 21 -44 42
-55 45 -10 3 -28 8 -39 11 -19 5 -20 2 -14 -68 4 -40 8 -80 8 -88 1 -8 -6 -15
-14 -15 -12 0 -14 15 -11 89 l3 88 -23 -7 c-44 -14 -79 -35 -94 -58 -43 -67
-43 -134 2 -189 l27 -33 -27 24 c-34 31 -52 87 -43 136 9 45 67 112 110 125
40 12 103 4 141 -19z m-322 -91 c-5 -35 -3 -39 11 -34 11 4 16 1 16 -10 0 -9
-7 -16 -16 -16 -14 0 -15 -7 -11 -37 4 -24 3 -33 -2 -24 -15 23 -11 161 4 161
2 0 1 -18 -2 -40z m477 20 c0 -5 -4 -10 -10 -10 -5 0 -10 5 -10 10 0 6 5 10
10 10 6 0 10 -4 10 -10z m4 -67 c-1 -15 -3 -29 -3 -31 -1 -2 -8 3 -16 12 -17
16 -21 41 -5 31 6 -3 10 1 10 10 0 9 4 14 8 11 4 -2 7 -17 6 -33z m739 -17
c57 -4 80 -60 43 -103 -24 -27 -27 -28 -125 -28 -94 0 -102 -2 -117 -23 -10
-15 -13 -27 -7 -33 16 -16 189 -30 236 -19 54 12 63 12 50 -1 -28 -28 -221
-28 -297 0 l-27 11 28 50 c23 41 32 50 48 45 11 -4 50 -9 87 -12 53 -4 73 -2
93 11 33 22 33 59 0 80 -14 9 -25 12 -25 7 0 -10 -44 -8 -117 4 -74 13 -50 28
30 20 39 -4 84 -8 100 -9z m241 -119 c-15 -26 -38 -47 -51 -47 -9 0 -5 12 14
34 24 32 53 41 37 13z m-1365 -78 c38 -24 65 -32 114 -36 66 -6 151 12 127 27
-8 5 -7 9 5 13 9 4 13 3 10 -3 -10 -16 5 -12 44 12 35 21 36 21 18 1 -10 -12
-42 -31 -70 -44 -93 -41 -207 -25 -287 40 -37 30 -18 25 39 -10z m151 -3 c0
-8 10 -17 23 -19 12 -2 -3 -5 -33 -5 -30 -1 -68 6 -85 14 -16 8 -21 12 -10 8
41 -12 86 -16 84 -8 -3 16 1 24 11 24 6 0 10 -6 10 -14z m1121 -18 c-13 -10
-33 -18 -44 -18 -18 0 -16 4 13 24 40 27 65 22 31 -6z m-1611 -18 c171 0 189
2 193 18 4 13 5 11 6 -5 l1 -23 -200 0 -200 0 1 28 c2 23 2 24 6 5 4 -23 5
-23 193 -23z m-476 -90 l68 -70 74 0 c57 0 74 -3 74 -14 0 -8 -7 -16 -15 -20
-8 -3 -14 -11 -13 -18 4 -18 -53 -23 -67 -6 -6 7 -22 22 -35 33 -19 15 -17 11
6 -15 18 -20 35 -52 38 -74 l7 -38 -58 47 c-32 26 -62 53 -66 61 -4 8 -13 14
-18 14 -13 0 -40 26 -33 32 2 3 -5 13 -16 23 -20 18 -21 18 -48 -8 -26 -26
-26 -27 -5 -27 40 0 33 -17 -10 -26 l-42 -8 45 -6 45 -7 -60 -3 c-33 -2 -69
-4 -80 -4 -11 -1 -26 -5 -32 -9 -7 -5 -13 -5 -13 0 0 4 -20 9 -45 11 l-46 3 3
-41 2 -40 30 28 c17 15 25 20 18 11 -6 -9 -9 -19 -5 -22 3 -4 -41 -52 -98
-108 -57 -56 -96 -99 -86 -95 28 9 57 -30 47 -65 -6 -20 -4 -31 5 -39 12 -10
14 -3 14 43 -1 30 2 65 6 78 8 24 8 24 -14 5 -11 -11 -24 -17 -27 -13 -3 3 36
46 88 95 51 50 95 88 97 86 3 -2 -14 -24 -37 -47 l-42 -43 0 -109 0 -110 77
-77 78 -78 108 0 108 0 80 72 c43 40 81 80 85 88 3 8 8 98 11 200 5 165 8 188
26 212 12 16 24 28 29 28 4 0 7 -35 6 -77 l-2 -78 -6 75 c-5 54 -7 20 -8 -119
-2 -169 -4 -197 -19 -215 -10 -11 -1 -6 20 12 21 17 40 32 42 32 17 0 -22 -50
-108 -137 -98 -99 -100 -102 -74 -108 31 -8 36 -25 8 -25 -37 0 -31 -19 6 -23
34 -3 33 -4 -11 -5 -30 -1 -57 -9 -68 -19 -18 -16 -18 -16 -12 0 4 13 1 17
-15 17 -12 0 -21 -6 -21 -13 0 -7 -18 -31 -40 -52 -39 -38 -57 -73 -22 -43 35
30 46 30 17 -1 l-29 -31 -74 72 c-75 73 -116 117 -165 173 l-26 30 -1 -32 c0
-26 4 -33 19 -33 11 0 27 -7 36 -17 16 -15 16 -17 -2 -27 -17 -9 -16 -11 7
-17 16 -4 -4 -7 -52 -8 l-78 -1 0 102 0 102 -67 68 -67 68 72 73 72 72 0 98 0
98 101 -2 102 -3 60 67 c33 37 63 67 67 67 4 0 37 -31 74 -70z m196 -253 c0
-64 -12 -53 -20 18 -5 44 -3 52 7 43 8 -6 13 -32 13 -61z m-180 40 l25 -18
-30 6 c-103 21 -148 15 -209 -28 -65 -45 -86 -167 -43 -248 18 -33 37 -51 76
-71 60 -31 95 -34 164 -13 58 18 61 10 5 -15 -137 -62 -288 41 -288 195 0 88
49 163 130 200 45 20 137 15 170 -8z m935 1 c9 -23 62 -383 58 -390 -6 -10
-243 -10 -243 0 0 4 7 18 16 31 15 21 22 23 76 18 l59 -5 -5 26 c-3 15 -10 72
-17 127 -6 55 -12 101 -13 102 0 1 -42 -68 -91 -153 l-90 -154 -38 0 c-21 0
-36 3 -34 8 2 4 53 96 112 205 l107 197 50 0 c30 0 50 -5 53 -12z m229 -20 c6
-28 26 -183 28 -220 2 -16 5 -28 8 -28 3 0 42 61 88 135 l83 135 44 0 c25 0
45 -2 45 -5 0 -2 -58 -93 -129 -202 -117 -181 -131 -198 -159 -201 -38 -4 -35
-13 -57 203 -9 88 -18 170 -21 183 -4 19 0 22 31 22 28 0 36 -4 39 -22z m656
18 c0 -3 -5 -17 -10 -31 l-10 -27 -100 4 c-108 3 -101 7 -115 -57 -3 -16 -8
-38 -11 -47 -5 -16 4 -18 85 -18 66 0 91 -3 91 -12 -1 -31 -18 -37 -105 -40
l-89 -3 -12 -55 c-7 -30 -13 -56 -14 -57 0 -2 45 -3 100 -3 103 0 110 -3 90
-41 -10 -17 -23 -19 -149 -19 l-138 0 51 205 51 205 142 0 c79 0 143 -2 143
-4z m256 -6 c63 0 65 -1 58 -22 -9 -32 -7 -31 -83 -29 -64 2 -71 0 -86 -23
-15 -23 -15 -27 0 -50 9 -14 36 -41 59 -60 81 -66 94 -140 34 -191 -28 -24
-36 -25 -144 -25 -116 0 -124 3 -104 39 8 16 19 17 86 13 67 -4 79 -2 91 13
24 33 14 56 -53 126 -68 70 -79 98 -61 154 11 33 89 70 125 59 8 -2 43 -4 78
-4z m376 -7 c-47 -5 -53 -23 -11 -34 20 -5 18 -7 -15 -10 -42 -4 -49 -15 -60
-94 -5 -32 -5 -32 -37 -172 l-21 -93 -38 0 -37 0 38 171 c22 95 39 176 39 180
0 5 -27 9 -60 9 -60 0 -66 4 -54 34 5 14 27 16 153 14 80 -1 127 -3 103 -5z
m437 -30 c70 -51 77 -155 18 -254 -35 -58 -97 -103 -157 -113 -28 -5 -31 -4
-12 4 23 10 31 40 10 40 -7 0 1 9 18 19 57 35 88 86 92 155 4 56 1 65 -23 94
-17 20 -39 34 -63 38 -20 4 -31 9 -24 11 18 7 15 23 -5 24 -10 1 -4 4 12 8 41
9 102 -3 134 -26z m-2991 -2 c3 -8 1 -11 -4 -8 -10 6 -10 -91 0 -100 3 -4 6
15 6 42 0 54 20 85 55 85 29 0 45 -19 44 -49 -1 -25 -2 -24 -9 4 -8 30 -8 30
-9 -8 -1 -35 1 -37 19 -27 11 6 24 8 29 5 5 -3 9 -44 8 -91 0 -64 -4 -87 -14
-91 -8 -3 -19 -1 -26 6 -20 20 -24 12 -17 -29 7 -37 5 -41 -16 -46 -14 -4 -31
-1 -38 6 -11 9 -20 9 -36 0 -34 -18 -70 -4 -77 30 -4 20 -11 30 -24 30 -10 0
-26 11 -35 25 -15 23 -15 27 0 49 10 15 12 27 6 31 -14 9 -12 59 2 73 7 7 20
12 29 12 10 0 20 11 24 27 3 15 12 31 18 35 18 12 60 5 65 -11z m411 -86 c29
-42 31 -52 17 -73 -6 -10 -18 -2 -47 30 -31 34 -39 51 -39 82 l0 39 21 -19
c12 -10 33 -37 48 -59z m-191 -78 c-7 -100 -23 -84 -23 24 0 94 1 98 14 67 8
-20 11 -56 9 -91z m-48 68 c0 -13 -3 -26 -7 -28 -5 -3 -8 10 -8 28 0 18 3 31
8 28 4 -2 7 -15 7 -28z m310 -49 c0 -3 -4 -8 -10 -11 -5 -3 -10 -1 -10 4 0 6
5 11 10 11 6 0 10 -2 10 -4z m-310 -51 c0 -37 -15 -37 -16 0 0 19 3 32 8 29 4
-3 8 -16 8 -29z m207 -53 l-37 -38 0 -104 c0 -57 -3 -100 -6 -97 -4 4 -7 46
-7 94 l0 88 -7 -80 -6 -80 -4 70 -4 70 -3 -62 c-3 -51 -7 -63 -21 -63 -15 0
-15 2 -2 10 13 9 13 10 0 10 -12 0 -15 9 -12 38 l4 37 -36 -34 c-20 -19 -38
-32 -41 -29 -6 5 203 208 214 208 3 0 -12 -17 -32 -38z m-280 -24 c-3 -8 -6
-5 -6 6 -1 11 2 17 5 13 3 -3 4 -12 1 -19z m138 -1104 c44 -20 69 -72 60 -123
-9 -52 -49 -89 -105 -97 -41 -5 -49 -3 -83 28 -46 41 -57 88 -32 141 28 60 96
82 160 51z m-2412 -96 c7 -4 18 -6 25 -3 7 3 12 -1 11 -8 -4 -30 3 -37 34 -38
31 0 31 -1 8 -10 -46 -18 -54 -30 -34 -52 18 -19 17 -20 -4 -8 -32 16 -53 4
-54 -33 -2 -27 -2 -28 -6 -6 -6 33 -23 52 -40 46 -8 -4 -13 2 -13 17 0 16 -9
27 -27 34 l-28 11 27 1 c32 1 41 20 20 44 -17 19 -3 24 17 5 10 -11 15 -9 27
6 8 11 15 31 16 45 1 19 2 16 5 -9 3 -19 10 -38 16 -42z m3660 -148 c11 0 18
-3 14 -6 -3 -4 4 -15 16 -25 22 -17 23 -17 62 19 38 36 33 22 -9 -26 -14 -15
-17 -25 -10 -30 6 -4 15 -18 19 -32 4 -14 13 -28 19 -32 6 -4 56 -9 111 -10
62 -1 77 -3 40 -5 -33 -1 -84 -5 -112 -9 -48 -5 -53 -8 -53 -30 0 -14 -7 -27
-15 -30 -22 -9 -19 -16 27 -70 l42 -49 -47 44 c-36 35 -49 42 -60 33 -7 -6
-24 -13 -38 -15 -22 -4 -25 -10 -31 -78 -11 -110 -16 -114 -17 -16 -1 62 -5
87 -13 87 -7 0 -26 7 -42 15 -28 15 -31 14 -61 -15 -17 -16 -35 -30 -40 -30
-6 0 -6 3 0 8 6 4 24 22 40 40 27 30 28 34 13 43 -10 6 -18 21 -18 34 0 21 -6
24 -52 29 -29 4 -78 8 -108 9 -33 2 -19 4 37 5 105 2 123 7 123 32 0 10 7 26
15 34 14 14 12 20 -27 63 l-43 48 53 -44 c28 -23 52 -38 52 -33 0 6 9 14 20
17 11 4 18 11 15 16 -4 5 3 9 14 9 20 0 21 6 23 88 l1 87 10 -87 c9 -78 12
-88 30 -88z m1788 129 c11 -6 24 -20 29 -32 7 -17 9 -18 9 -4 2 36 21 15 21
-22 0 -49 8 -71 25 -71 8 0 17 -5 21 -12 4 -7 3 -8 -4 -4 -8 5 -10 1 -6 -9 6
-14 10 -13 32 7 l26 23 -17 -27 c-11 -18 -13 -29 -6 -33 6 -4 8 -13 5 -21 -4
-11 7 -14 52 -16 l57 -2 -49 -3 c-43 -4 -47 -6 -43 -25 3 -11 3 -17 0 -14 -4
3 -12 1 -20 -5 -11 -10 -9 -18 13 -48 l27 -36 -36 34 c-21 19 -37 30 -37 24 0
-6 -8 -13 -18 -15 -12 -3 -18 -16 -20 -38 -4 -48 -9 -48 -17 -1 -4 25 -12 41
-21 41 -8 0 -14 5 -14 12 0 6 -11 1 -25 -12 -14 -13 -27 -21 -30 -18 -3 2 4
13 14 22 19 18 18 27 -7 66 -2 3 -29 8 -60 11 l-57 6 70 2 c39 1 65 5 60 9
-12 8 -13 27 -2 38 4 4 -11 24 -33 45 -46 43 -53 82 -20 117 23 24 50 28 81
11z m1811 -344 c2 -11 14 -22 28 -26 24 -7 24 -7 3 -8 -13 -1 -23 -6 -23 -12
0 -5 5 -7 10 -4 6 3 28 -4 50 -16 l39 -22 58 49 c60 50 57 41 -9 -33 -38 -42
-38 -43 -19 -62 10 -10 22 -32 25 -49 6 -27 11 -30 59 -36 29 -3 79 -6 112 -7
49 -1 54 -3 30 -9 -16 -4 -61 -8 -100 -9 -80 -1 -89 -6 -99 -43 -3 -15 -15
-36 -26 -45 -18 -18 -18 -20 33 -78 52 -60 45 -59 -26 3 -35 30 -41 32 -55 19
-15 -13 -55 -30 -74 -32 -15 -1 -17 -16 -24 -125 -3 -63 -7 -116 -9 -118 -1
-1 -5 48 -9 110 -7 111 -14 141 -32 139 -17 -1 -49 11 -67 27 -16 14 -20 13
-55 -19 -80 -74 -94 -81 -41 -21 l56 63 -23 47 c-36 73 -34 72 -152 73 -131 1
-196 17 -76 18 45 1 108 4 142 7 54 6 61 9 67 32 3 14 15 38 26 53 l20 28 -51
56 c-59 65 -66 84 -12 34 77 -72 75 -71 111 -53 17 9 38 17 46 18 23 3 30 16
9 16 -18 0 -18 2 3 18 19 15 22 31 29 132 l8 115 8 -105 c4 -58 9 -114 10
-125z m-9111 169 c9 -26 10 -26 31 -8 21 19 21 19 10 -2 -15 -28 -3 -42 38
-47 l35 -4 -36 -1 c-41 -2 -57 -24 -37 -51 12 -14 11 -15 -5 -1 -17 13 -21 12
-38 -10 -14 -19 -19 -21 -19 -9 0 21 -24 31 -38 17 -8 -8 -11 -3 -9 18 2 27
-1 29 -43 35 l-45 6 48 1 c40 2 47 5 47 22 0 13 7 20 20 20 13 0 20 7 20 20 0
28 9 25 21 -6z m3764 -282 c17 -8 28 -7 46 6 23 15 24 15 8 -4 -10 -12 -14
-28 -10 -44 6 -20 15 -26 46 -31 l40 -5 -35 -5 c-27 -3 -36 -9 -38 -27 -3 -17
-8 -22 -20 -17 -9 3 -1 -10 17 -29 19 -20 30 -36 25 -36 -6 0 -21 11 -34 25
-23 25 -43 25 -34 0 4 -9 0 -12 -14 -9 -16 5 -20 -2 -29 -48 l-10 -53 -2 56
c-1 48 -4 57 -18 55 -12 -1 -17 6 -16 18 1 14 -6 11 -33 -15 -40 -39 -46 -28
-6 14 16 17 21 27 12 25 -9 -2 -14 4 -14 14 2 16 -22 31 -42 27 -5 -1 -18 -1
-28 0 -35 2 -7 14 30 13 28 -1 37 3 41 18 3 11 10 20 16 20 6 0 -5 17 -24 37
l-34 37 39 -32 c43 -34 54 -35 37 -5 -8 15 -7 20 5 20 7 0 14 -4 14 -9 0 -5 5
-6 10 -3 6 3 10 21 11 38 l1 32 10 -36 c6 -22 18 -40 33 -47z m109 -148 c3 -8
2 -12 -4 -9 -6 3 -10 10 -10 16 0 14 7 11 14 -7z m6697 -197 c2 -2 23 -11 47
-19 l43 -17 42 39 c56 53 62 41 6 -16 -28 -28 -40 -47 -33 -52 12 -7 29 -52
26 -65 -3 -12 17 -17 128 -26 99 -8 101 -8 34 -10 -108 -2 -166 -12 -160 -27
3 -7 -4 -24 -15 -38 -23 -29 -18 -45 25 -85 14 -14 26 -29 26 -34 0 -5 -21 10
-46 33 -26 23 -49 38 -53 33 -10 -15 -50 -35 -60 -29 -15 10 -21 -22 -22 -112
-1 -102 -17 -86 -18 18 -1 36 -5 70 -9 76 -4 5 -26 19 -49 31 l-42 20 -32 -34
c-46 -47 -59 -41 -15 7 35 39 45 60 27 60 -9 0 -25 50 -20 60 6 10 -61 18
-186 20 l-130 3 146 7 c81 4 152 10 158 14 6 4 11 17 11 28 0 12 7 29 16 39
14 15 13 20 -13 50 -53 64 -57 74 -10 29 l47 -44 29 17 c16 9 36 17 44 17 16
0 27 48 27 127 0 99 15 89 21 -14 3 -57 7 -104 10 -106z m-2792 -444 c0 -7 7
-10 15 -7 8 3 17 0 21 -5 3 -6 11 -8 17 -5 7 5 9 0 6 -14 -4 -14 0 -22 14 -25
11 -3 17 -10 13 -16 -13 -22 9 -10 63 37 l57 47 -32 -41 c-18 -22 -39 -47 -48
-54 -16 -13 -21 -35 -6 -26 8 5 27 -31 33 -64 5 -23 26 -28 128 -31 89 -2 92
-2 40 -9 -30 -5 -78 -8 -106 -9 -49 -1 -52 -3 -57 -31 -4 -16 -16 -39 -28 -51
l-21 -21 43 -44 c52 -53 45 -58 -10 -9 -25 23 -45 33 -55 29 -9 -3 -16 -9 -16
-13 0 -7 -7 -9 -49 -13 -23 -3 -29 -29 -31 -143 -1 -44 -3 -81 -5 -83 -2 -2
-6 46 -10 107 -8 114 -8 115 -51 114 -6 0 -19 10 -30 22 l-19 22 -60 -51 -60
-51 55 64 c30 35 48 62 40 59 -11 -4 -20 8 -31 41 l-16 46 -127 6 c-70 4 -130
9 -133 13 -3 3 45 6 108 6 128 0 163 6 155 26 -3 7 -1 16 5 19 5 4 7 11 4 16
-4 5 0 12 9 15 32 12 25 36 -26 90 -62 66 -52 72 15 8 34 -34 50 -44 60 -36 6
5 21 11 31 13 18 4 18 5 3 21 -9 9 -22 18 -29 20 -9 3 -8 10 6 23 18 19 18 19
12 -1 -6 -19 -3 -21 31 -19 l38 3 10 123 10 124 6 -115 c4 -63 7 -120 8 -127z
m-5874 95 c5 -66 10 -88 21 -88 8 0 14 -6 14 -12 0 -7 12 -19 27 -25 24 -12
29 -10 65 22 66 60 61 45 -9 -33 -15 -16 -16 -29 -4 -37 5 -3 12 -19 16 -35
l7 -30 76 0 c42 0 84 -5 92 -10 10 -7 -10 -10 -67 -10 -81 0 -94 -5 -99 -38
-2 -8 -10 -22 -20 -33 -17 -19 -16 -21 7 -47 50 -55 53 -66 5 -23 -26 24 -51
39 -55 34 -10 -16 -52 -35 -59 -28 -4 4 -12 -42 -18 -102 -10 -98 -11 -102
-13 -43 -3 121 -9 138 -52 151 -21 7 -36 16 -33 20 13 21 -11 5 -56 -37 -62
-58 -64 -53 -6 12 25 27 41 51 36 54 -5 3 -16 22 -25 43 l-15 37 -85 0 c-115
0 -117 17 -2 19 50 1 94 5 97 9 3 4 12 24 19 46 13 38 13 39 -25 78 -22 22
-30 36 -19 30 11 -6 29 -20 40 -32 11 -12 28 -26 37 -31 14 -8 16 -6 11 7 -4
11 -3 15 5 10 6 -3 13 -2 17 4 4 6 11 7 17 4 6 -4 6 1 -1 14 -9 17 -8 19 8 15
22 -5 30 31 32 142 2 80 5 67 14 -57z m-2089 -606 c31 -9 38 -8 67 16 l32 27
-26 -35 c-24 -32 -25 -37 -12 -67 12 -31 16 -33 66 -34 38 0 47 -3 32 -9 -11
-5 -37 -9 -57 -9 -30 -1 -38 -5 -38 -19 0 -10 -5 -23 -12 -30 -9 -9 -7 -17 10
-35 33 -35 27 -43 -9 -12 -23 18 -35 23 -42 16 -6 -6 -19 -11 -29 -11 -16 0
-18 -10 -19 -77 -1 -83 -4 -81 -14 10 -4 38 -11 57 -20 57 -7 0 -20 7 -28 14
-13 13 -20 10 -58 -22 l-44 -37 37 43 c36 43 36 44 20 73 -14 23 -24 29 -52
30 -19 0 -44 4 -55 9 -15 6 -9 9 27 9 51 1 80 9 73 21 -2 4 2 16 10 26 12 17
10 23 -18 53 -33 35 -19 34 21 -2 17 -16 25 -18 34 -9 7 7 20 12 29 12 13 0
18 15 25 78 l9 77 3 -76 3 -76 35 -11z m5141 -305 c11 4 14 3 9 -6 -5 -8 -1
-14 13 -18 12 -3 18 -10 14 -17 -3 -6 11 5 32 24 l39 35 -28 -38 c-22 -30 -25
-41 -16 -52 6 -8 9 -19 5 -25 -4 -6 8 -10 32 -10 21 0 45 -5 53 -10 11 -7 3
-10 -30 -10 -42 0 -47 -3 -57 -30 -11 -28 -9 -34 20 -68 l31 -37 -40 37 c-34
32 -41 35 -53 22 -7 -9 -19 -13 -27 -10 -11 4 -14 -10 -16 -67 -1 -40 -3 -54
-5 -32 -5 64 -14 107 -20 101 -3 -3 -14 -1 -24 5 -15 8 -27 4 -57 -17 l-37
-28 31 33 c31 33 31 34 15 62 -15 27 -20 29 -80 29 -99 0 -66 17 36 19 34 1
41 4 37 16 -4 8 -1 22 6 30 11 13 8 21 -16 47 l-29 32 35 -26 c63 -46 98 -11
102 100 2 48 3 45 5 -20 3 -66 6 -76 20 -71z m1711 -228 c9 -1 21 -1 25 0 5 1
6 -3 2 -9 -3 -5 1 -13 9 -16 9 -3 13 -11 9 -18 -8 -13 19 6 66 48 31 28 30 25
-10 -24 -24 -30 -39 -51 -32 -47 8 5 15 -3 21 -25 8 -33 9 -33 93 -44 l84 -11
-95 -3 c-52 -1 -87 -4 -77 -7 22 -6 22 -15 -3 -33 -27 -19 -25 -29 13 -75 l32
-40 -49 40 c-28 22 -46 34 -42 28 4 -7 2 -14 -3 -14 -6 -1 -15 -3 -21 -4 -5
-1 -17 -3 -25 -4 -12 -1 -15 -16 -16 -68 -1 -78 -17 -60 -18 20 -1 36 -5 49
-18 53 -10 3 -26 10 -35 15 -10 5 -19 5 -23 -1 -3 -5 -20 -19 -38 -31 l-32
-22 33 35 c33 35 33 36 17 61 -9 15 -14 31 -10 37 4 6 -24 10 -82 11 l-88 2
82 9 82 10 7 34 c4 22 10 31 18 27 12 -8 -5 17 -43 61 -24 28 -23 27 19 -6 41
-31 47 -33 62 -20 15 14 15 16 0 31 -10 9 -13 13 -8 9 6 -5 20 -8 33 -8 20 0
23 5 23 44 0 24 3 59 8 77 6 27 8 19 10 -43 2 -65 6 -78 20 -79z m3332 89 c0
-36 4 -45 26 -55 22 -10 29 -8 62 20 l37 32 -31 -40 c-26 -33 -30 -43 -20 -60
6 -11 12 -22 13 -24 1 -2 28 -7 60 -11 l58 -7 -62 -2 c-60 -1 -62 -2 -68 -32
-5 -22 -2 -36 11 -50 9 -10 13 -19 7 -19 -5 0 -18 8 -27 19 -14 16 -21 17 -41
7 -21 -9 -25 -18 -25 -53 0 -24 -4 -43 -10 -43 -5 0 -10 17 -10 39 0 29 -6 42
-22 53 -21 14 -26 13 -58 -10 l-35 -26 23 25 c17 20 21 33 16 57 l-6 32 -77 2
-76 1 68 6 c52 5 72 11 83 25 20 28 18 40 -13 78 l-27 33 35 -33 c32 -29 37
-31 62 -20 23 11 27 19 27 56 0 23 5 42 10 42 6 0 10 -19 10 -42z m-6971 -105
c1 -59 4 -73 17 -73 8 0 12 -4 9 -10 -3 -5 3 -10 15 -10 12 0 19 -4 16 -9 -3
-5 2 -12 11 -15 10 -4 33 8 67 36 l51 43 -42 -51 c-38 -46 -40 -51 -28 -74 7
-14 16 -33 19 -42 4 -15 17 -18 65 -18 95 0 107 -14 16 -20 l-79 -5 -10 -32
c-5 -18 -13 -33 -17 -33 -17 0 -9 -17 29 -61 l37 -44 -48 39 c-29 24 -51 36
-55 29 -4 -5 -20 -14 -37 -20 -29 -9 -30 -11 -33 -84 -4 -95 -18 -110 -21 -22
-2 89 -5 96 -43 113 -18 7 -36 15 -39 17 -3 2 -28 -16 -55 -39 l-49 -43 50 60
c28 32 45 56 39 52 -7 -4 -17 6 -25 26 -7 17 -18 35 -23 39 -6 4 -48 8 -93 8
-113 0 -106 19 9 22 89 3 91 4 95 28 2 14 11 31 20 38 15 11 14 15 -13 45 -61
66 -67 80 -16 35 48 -43 82 -53 82 -26 0 5 4 7 9 4 13 -8 42 4 36 14 -3 5 -1
11 5 15 5 3 10 45 11 93 1 106 17 83 18 -25z m-2159 -128 c26 -31 -13 -82 -44
-56 -16 14 -22 52 -9 64 11 12 40 8 53 -8z m-58 -159 c10 -7 14 -17 10 -22 -4
-5 5 1 19 14 34 29 48 28 20 -2 -19 -20 -20 -24 -6 -30 9 -3 13 -10 10 -16 -4
-6 11 -10 37 -11 l43 -1 -42 -10 c-48 -12 -62 -41 -35 -72 17 -20 17 -20 -8
-5 -42 27 -68 7 -73 -55 l-3 -51 -2 58 c-1 32 -6 56 -10 53 -4 -2 -14 -1 -22
4 -9 6 -25 1 -44 -12 l-31 -21 29 31 c17 18 24 32 18 32 -7 0 -12 6 -12 14 0
7 -15 17 -32 22 l-33 8 32 3 c35 4 54 36 34 56 -19 19 -12 31 8 13 16 -15 22
-15 40 -4 18 11 21 24 23 78 l1 65 6 -63 c4 -44 12 -68 23 -76z m1516 91 c2
-12 -3 -17 -17 -17 -12 0 -21 6 -21 13 0 31 32 34 38 4z m7803 -384 c18 -21
23 -29 10 -18 -23 19 -24 19 -17 1 6 -16 4 -17 -10 -5 -11 9 -12 15 -4 17 7 3
6 10 -6 23 -9 10 -15 19 -13 19 3 0 21 -17 40 -37z m-5841 -618 c-14 -17 -30
-20 -30 -5 0 6 6 9 13 8 6 -2 11 5 10 16 -1 13 2 15 10 7 7 -7 6 -15 -3 -26z
m2354 -1141 c10 -25 7 -33 -13 -44 -36 -19 -74 17 -50 46 16 19 55 18 63 -2z"/>
<path d="M5950 7790 c-44 -56 -34 -58 13 -4 21 24 34 44 29 44 -6 0 -25 -18
-42 -40z"/>
<path d="M6594 7850 c-33 -5 -134 -53 -134 -64 0 -2 16 -16 36 -31 33 -25 36
-26 53 -11 45 41 131 41 158 0 27 -41 9 -68 -120 -180 -95 -84 -123 -114 -125
-136 l-3 -28 185 0 186 0 0 40 0 40 -116 0 -115 0 62 53 c34 28 72 60 85 70
35 27 74 99 74 135 0 78 -106 130 -226 112z"/>
<path d="M5100 7300 c0 -10 -14 -35 -31 -55 -39 -44 -24 -46 19 -2 18 19 30
41 29 55 -2 27 -17 30 -17 2z"/>
<path d="M4838 7173 c12 -2 32 -2 45 0 12 2 2 4 -23 4 -25 0 -35 -2 -22 -4z"/>
<path d="M4822 7110 c0 -14 2 -19 5 -12 2 6 2 18 0 25 -3 6 -5 1 -5 -13z"/>
<path d="M4834 6815 c0 -88 2 -123 3 -77 2 46 2 118 0 160 -1 42 -3 5 -3 -83z"/>
<path d="M4814 6765 c0 -104 2 -146 3 -92 2 54 2 139 0 190 -1 51 -3 7 -3 -98z"/>
<path d="M4832 6625 c0 -16 2 -22 5 -12 2 9 2 23 0 30 -3 6 -5 -1 -5 -18z"/>
<path d="M5055 6560 c3 -5 12 -7 20 -3 21 7 19 13 -6 13 -11 0 -18 -4 -14 -10z"/>
<path d="M5051 6519 c4 -9 6 -19 3 -22 -7 -7 27 -56 39 -57 5 0 5 4 2 10 -3 5
6 20 21 32 14 13 30 31 36 41 9 17 5 18 -50 15 -52 -2 -59 -5 -51 -19z m40 -6
c13 -16 12 -17 -3 -4 -10 7 -18 15 -18 17 0 8 8 3 21 -13z"/>
<path d="M5062 6875 c0 -25 4 -43 9 -40 10 7 9 74 -2 80 -4 3 -7 -15 -7 -40z"/>
<path d="M5137 6887 c-3 -8 -1 -20 4 -28 6 -10 9 -7 9 14 0 29 -5 35 -13 14z"/>
<path d="M5090 6779 c0 -31 4 -48 10 -44 6 3 10 26 10 51 0 24 -4 44 -10 44
-5 0 -10 -23 -10 -51z"/>
<path d="M5520 6880 c0 -5 5 -10 11 -10 5 0 7 5 4 10 -3 6 -8 10 -11 10 -2 0
-4 -4 -4 -10z"/>
<path d="M8355 5390 c10 -11 20 -20 23 -20 3 0 -3 9 -13 20 -10 11 -20 20 -23
20 -3 0 3 -9 13 -20z"/>
</g>
</svg>
